<?xml version="1.0" standalone="no"?>
<svg xmlns:xlink="http://www.w3.org/1999/xlink" id="wave" style="transform:rotate(180deg); transition: 0.3s" viewBox="0 0 1440 220" version="1.1" xmlns="http://www.w3.org/2000/svg"><defs><linearGradient id="sw-gradient-0" x1="0" x2="0" y1="1" y2="0"><stop stop-color="rgba(166, 174, 221, 1)" offset="0%"/><stop stop-color="rgba(16.528, 45.578, 214.752, 1)" offset="100%"/></linearGradient></defs><path style="transform:translate(0, 0px); opacity:1" fill="url(#sw-gradient-0)" d="M0,66L80,88C160,110,320,154,480,165C640,176,800,154,960,132C1120,110,1280,88,1440,91.7C1600,95,1760,125,1920,121C2080,117,2240,81,2400,58.7C2560,37,2720,29,2880,47.7C3040,66,3200,110,3360,113.7C3520,117,3680,81,3840,69.7C4000,59,4160,73,4320,73.3C4480,73,4640,59,4800,58.7C4960,59,5120,73,5280,84.3C5440,95,5600,103,5760,113.7C5920,125,6080,139,6240,135.7C6400,132,6560,110,6720,110C6880,110,7040,132,7200,132C7360,132,7520,110,7680,106.3C7840,103,8000,117,8160,128.3C8320,139,8480,147,8640,150.3C8800,154,8960,154,9120,128.3C9280,103,9440,51,9600,36.7C9760,22,9920,44,10080,55C10240,66,10400,66,10560,62.3C10720,59,10880,51,11040,40.3C11200,29,11360,15,11440,7.3L11520,0L11520,220L11440,220C11360,220,11200,220,11040,220C10880,220,10720,220,10560,220C10400,220,10240,220,10080,220C9920,220,9760,220,9600,220C9440,220,9280,220,9120,220C8960,220,8800,220,8640,220C8480,220,8320,220,8160,220C8000,220,7840,220,7680,220C7520,220,7360,220,7200,220C7040,220,6880,220,6720,220C6560,220,6400,220,6240,220C6080,220,5920,220,5760,220C5600,220,5440,220,5280,220C5120,220,4960,220,4800,220C4640,220,4480,220,4320,220C4160,220,4000,220,3840,220C3680,220,3520,220,3360,220C3200,220,3040,220,2880,220C2720,220,2560,220,2400,220C2240,220,2080,220,1920,220C1760,220,1600,220,1440,220C1280,220,1120,220,960,220C800,220,640,220,480,220C320,220,160,220,80,220L0,220Z"/></svg>